<?xml version="1.0" encoding="utf-8"?>
<!-- Generator: Adobe Illustrator 22.0.1, SVG Export Plug-In . SVG Version: 6.00 Build 0)  -->
<svg version="1.1" id="vv" xmlns="http://www.w3.org/2000/svg" xmlns:xlink="http://www.w3.org/1999/xlink" x="0px" y="0px"
	 viewBox="0 0 2272 1872" style="enable-background:new 0 0 2272 1872;" xml:space="preserve">
<style type="text/css">
	.st0{fill:#4EBEFD;}
	.st1{fill:#97DFFF;}
	.st2{fill:#96DFFF;}
	.st3{fill:#95DEFF;}
	.st4{fill:#94DEFF;}
	.st5{fill:#93DDFF;}
	.st6{fill:#92DDFF;}
	.st7{fill:#91DCFF;}
	.st8{fill:#90DCFF;}
	.st9{fill:#8FDBFF;}
	.st10{fill:#8EDBFF;}
	.st11{fill:#8DDBFF;}
	.st12{fill:#8CDAFF;}
	.st13{fill:#8BDAFF;}
	.st14{fill:#8AD9FF;}
	.st15{fill:#89D9FF;}
	.st16{fill:#88D8FF;}
	.st17{fill:#87D8FF;}
	.st18{fill:#86D7FF;}
	.st19{fill:#85D7FF;}
	.st20{fill:#84D7FE;}
	.st21{fill:#83D6FE;}
	.st22{fill:#82D6FE;}
	.st23{fill:#81D5FE;}
	.st24{fill:#80D5FE;}
	.st25{fill:#7FD4FE;}
	.st26{fill:#7ED4FE;}
	.st27{fill:#7DD3FE;}
	.st28{fill:#7CD3FE;}
	.st29{fill:#7BD3FE;}
	.st30{fill:#7AD2FE;}
	.st31{fill:#79D2FE;}
	.st32{fill:#78D1FE;}
	.st33{fill:#77D1FE;}
	.st34{fill:#76D0FE;}
	.st35{fill:#75D0FE;}
	.st36{fill:#74CFFE;}
	.st37{fill:#73CFFE;}
	.st38{fill:#72CEFE;}
	.st39{fill:#71CEFE;}
	.st40{fill:#70CDFE;}
	.st41{fill:#6FCDFE;}
	.st42{fill:#6ECCFE;}
	.st43{fill:#6DCCFE;}
	.st44{fill:#6CCBFE;}
	.st45{fill:#6BCBFE;}
	.st46{fill:#6ACAFE;}
	.st47{fill:#69CAFE;}
	.st48{fill:#68CAFE;}
	.st49{fill:#67C9FE;}
	.st50{fill:#66C9FE;}
	.st51{fill:#65C8FE;}
	.st52{fill:#64C8FE;}
	.st53{fill:#63C7FE;}
	.st54{fill:#62C7FE;}
	.st55{fill:#61C6FE;}
	.st56{fill:#60C6FD;}
	.st57{fill:#5FC6FD;}
	.st58{fill:#5EC5FD;}
	.st59{fill:#5DC5FD;}
	.st60{fill:#5CC4FD;}
	.st61{fill:#5BC4FD;}
	.st62{fill:#5AC3FD;}
	.st63{fill:#59C3FD;}
	.st64{fill:#58C2FD;}
	.st65{fill:#57C2FD;}
	.st66{fill:#56C2FD;}
	.st67{fill:#55C1FD;}
	.st68{fill:#54C1FD;}
	.st69{fill:#53C0FD;}
	.st70{fill:#52C0FD;}
	.st71{fill:#51BFFD;}
	.st72{fill:#50BFFD;}
	.st73{fill:#4FBEFD;}
	.st74{opacity:0.16;fill:#FDFEFF;}
	.st75{fill:#42B5E8;}
	.st76{fill:#BFD1DD;}
	.st77{fill:#FDFEFF;}
	.st78{fill:#D0E1EF;}
	.st79{opacity:0.38;fill:#FDFEFF;}
	.st80{fill:#EF6A70;}
	.st81{fill:#FA9164;}
	.st82{fill:#6C60AF;}
	.st83{fill:#38ABFA;}
	.st84{fill:#F1BD6A;}
	.st85{fill:#466ABD;}
	.st86{fill:#63A955;}
</style>
<g id="Layer_1_1_">
</g>
<g id="Layer_2">
</g>
<rect class="st0" width="2272" height="1872"/>
<rect class="st0" width="2272" height="1872"/>
<rect class="st0" width="2272" height="1872"/>
<g>
	<rect y="1796.8" class="st1" width="2272" height="75.2"/>
	<rect y="1772.6" class="st2" width="2272" height="75.2"/>
	<rect y="1748.3" class="st3" width="2272" height="75.2"/>
	<rect y="1724" class="st4" width="2272" height="75.2"/>
	<rect y="1699.7" class="st5" width="2272" height="75.2"/>
	<rect y="1675.4" class="st6" width="2272" height="75.2"/>
	<rect y="1651.2" class="st7" width="2272" height="75.2"/>
	<rect y="1626.9" class="st8" width="2272" height="75.2"/>
	<rect y="1602.6" class="st9" width="2272" height="75.2"/>
	<rect y="1578.3" class="st10" width="2272" height="75.2"/>
	<rect y="1554" class="st11" width="2272" height="75.2"/>
	<rect y="1529.8" class="st12" width="2272" height="75.2"/>
	<rect x="0" y="1505.5" class="st13" width="2272" height="75.2"/>
	<rect y="1481.2" class="st14" width="2272" height="75.2"/>
	<rect x="0" y="1456.9" class="st15" width="2272" height="75.2"/>
	<rect y="1432.6" class="st16" width="2272" height="75.2"/>
	<rect y="1408.3" class="st17" width="2272" height="75.2"/>
	<rect y="1384.1" class="st18" width="2272" height="75.2"/>
	<rect y="1359.8" class="st19" width="2272" height="75.2"/>
	<rect y="1335.5" class="st20" width="2272" height="75.2"/>
	<rect y="1311.2" class="st21" width="2272" height="75.2"/>
	<rect y="1286.9" class="st22" width="2272" height="75.2"/>
	<rect y="1262.7" class="st23" width="2272" height="75.2"/>
	<rect y="1238.4" class="st24" width="2272" height="75.2"/>
	<rect y="1214.1" class="st25" width="2272" height="75.2"/>
	<rect y="1189.8" class="st26" width="2272" height="75.2"/>
	<rect y="1165.5" class="st27" width="2272" height="75.2"/>
	<rect y="1141.2" class="st28" width="2272" height="75.2"/>
	<rect y="1117" class="st29" width="2272" height="75.2"/>
	<rect y="1092.7" class="st30" width="2272" height="75.2"/>
	<rect y="1068.4" class="st31" width="2272" height="75.2"/>
	<rect y="1044.1" class="st32" width="2272" height="75.2"/>
	<rect y="1019.8" class="st33" width="2272" height="75.2"/>
	<rect y="995.6" class="st34" width="2272" height="75.2"/>
	<rect y="971.3" class="st35" width="2272" height="75.2"/>
	<rect y="947" class="st36" width="2272" height="75.2"/>
	<rect y="922.7" class="st37" width="2272" height="75.2"/>
	<rect y="898.4" class="st38" width="2272" height="75.2"/>
	<rect y="874.1" class="st38" width="2272" height="75.2"/>
	<rect y="849.9" class="st39" width="2272" height="75.2"/>
	<rect y="825.6" class="st40" width="2272" height="75.2"/>
	<rect y="801.3" class="st41" width="2272" height="75.2"/>
	<rect y="777" class="st42" width="2272" height="75.2"/>
	<rect y="752.7" class="st43" width="2272" height="75.2"/>
	<rect y="728.5" class="st44" width="2272" height="75.2"/>
	<rect y="704.2" class="st45" width="2272" height="75.2"/>
	<rect y="679.9" class="st46" width="2272" height="75.2"/>
	<rect y="655.6" class="st47" width="2272" height="75.2"/>
	<rect y="631.3" class="st48" width="2272" height="75.2"/>
	<rect y="607" class="st49" width="2272" height="75.2"/>
	<rect y="582.8" class="st50" width="2272" height="75.2"/>
	<rect y="558.5" class="st51" width="2272" height="75.2"/>
	<rect y="534.2" class="st52" width="2272" height="75.2"/>
	<rect y="509.9" class="st53" width="2272" height="75.2"/>
	<rect y="485.6" class="st54" width="2272" height="75.2"/>
	<rect y="461.4" class="st55" width="2272" height="75.2"/>
	<rect y="437.1" class="st56" width="2272" height="75.2"/>
	<rect y="412.8" class="st57" width="2272" height="75.2"/>
	<rect y="388.5" class="st58" width="2272" height="75.2"/>
	<rect y="364.2" class="st59" width="2272" height="75.2"/>
	<rect y="339.9" class="st60" width="2272" height="75.2"/>
	<rect y="315.7" class="st61" width="2272" height="75.2"/>
	<rect y="291.4" class="st62" width="2272" height="75.2"/>
	<rect y="267.1" class="st63" width="2272" height="75.2"/>
	<rect y="242.8" class="st64" width="2272" height="75.2"/>
	<rect y="218.5" class="st65" width="2272" height="75.2"/>
	<rect y="194.3" class="st66" width="2272" height="75.2"/>
	<rect y="170" class="st67" width="2272" height="75.2"/>
	<rect y="145.7" class="st68" width="2272" height="75.2"/>
	<rect y="121.4" class="st69" width="2272" height="75.2"/>
	<rect y="97.1" class="st70" width="2272" height="75.2"/>
	<rect y="72.8" class="st71" width="2272" height="75.2"/>
	<rect y="48.6" class="st72" width="2272" height="75.2"/>
	<rect y="24.3" class="st73" width="2272" height="75.2"/>
	<rect class="st0" width="2272" height="75.2"/>
</g>
<path class="st74" d="M44.2,1635.5c71.9-5.8,144-9.5,216.1-11c39.4-0.8,79.4-1,117.4,9.4c34.4,9.4,66.3,27.3,101.3,34.5
	c35.6,7.4,72.5,3.4,108.7-0.5c169.4-18.5,340-35.6,510.1-23.9c103.3,7.1,205.9,24.9,309.4,27c103.5,2.1,210.5-12.7,299.5-65.8
	c39.1-23.3,75.4-55.8,90-98.9c19.4-57.1-2.8-119.3-26.9-174.5c-25.6-58.5-55.8-118.3-107.4-155.8c-92.3-67-223.2-42-324.3,10.9
	c8.6-45.3-7.8-94.6-41.9-125.7c-34.1-31.1-84.7-42.8-129-30c-1.7-89.9-98.8-164.8-186.2-143.5c-13.1,3.2-27.6,7.9-39.2,1.3
	c-6.9-4-11.2-11.3-14.5-18.6c-19.3-43.3-12.1-95.3-33.1-137.8c-22-44.7-76.1-71-124.8-60.8c-22.6,4.7-45.2,16.4-67.5,10.8
	c-26.2-6.6-41.2-34.5-47-60.9c-5.9-26.4-6.1-54.5-18-78.8c-16.3-33.5-53.1-54.1-90.3-57.4c-37.1-3.3-74.3,8.6-107,26.5
	c-12.4,6.8-25,14.7-39.1,15.3c-31.5,1.4-51.7-31.2-71.2-55.9c-39.6-49.8-103.3-79.5-166.9-77.7C98.6,395.6,36.6,428.8,0,480.9
	v1150.4L44.2,1635.5z"/>
<path class="st75" d="M2014.3,1142.2c-23.4,24.1-71.9,67.2-61.9,98.9c0.2,0.5,0.4,1.1,0.6,1.6c-0.2-0.5-0.4-1.1-0.6-1.6
	c-5.4-14.5-19.6-25.4-35.1-26.6c-16-1.3-49.6-2.4-56.8,11.9c-25.8-57.2-91.6-83.2-152.1-99.9c-23.5-6.5-47.7-12.5-72.1-11.4
	c-40.2,1.9-76.7,22.7-111,43.7c-29.8,18.2-60.1,37.7-80.1,66.3c-20,28.7-51.1,67.4-32.3,96.9c-40.3-11.4-86.4,0.3-116.4,29.5
	c-30.1,29.2-51.1,76.1-40.9,116.7c-53.7-8.4-111.2,15-143.7,58.5c-32.5,43.5-35.1,108.5-11.8,157.6c-54.4-13.1-112.7-3-163.3,20.8
	c-50.7,23.7-94.3,60.3-133.1,100.7c-18.4,19.2-36.3,41.9-47.3,66.1H2272v-828c-4.2-0.3-8.4-0.6-12.6-0.7
	C2168.7,1040.2,2077.4,1077,2014.3,1142.2z"/>
<path class="st74" d="M1593.6,1189.4c91.1,24.6,127.7,134.7,204.4,189.7c11.4,8.2,24.5,15.4,38.6,15.3c31.4-0.1,51.7-36.2,50.1-67.6
	c-1.6-31.3-17.4-59.9-26.5-89.9c-2.1-7-3.8-14.1-5.2-21.2c-28.8-49.8-90-73.5-146.6-89.2c-23.5-6.5-47.7-12.5-72.1-11.4
	c-40.2,1.9-76.7,22.7-111,43.7c-24.4,14.9-49.1,30.6-68.2,51.5C1501.2,1190.3,1547.9,1177,1593.6,1189.4z"/>
<path class="st74" d="M2272,1044c-4.2-0.3-8.4-0.6-12.6-0.7c-52.3-1.8-104.7,9.7-151.9,32.2c-55.7,60.4-89.7,140.8-92.9,222.9
	c-0.8,20.9,0.4,42.4,9.4,61.3c26.3,55.2,101.6,62.1,149.9,99.6c67.8,52.7,68.9,158.7,30.9,235.6c-33.6,68-89.8,121-141.4,177.1H2272
	V1044z"/>
<path class="st76" d="M2196.1,1614.9c-18.5,30.7-21.4,68.7-17.2,104.3c4.2,35.6,15,70.1,22.1,105.3c1.6,7.8,2.9,16,0.1,23.4
	c-6.3,16.7-28,19.4-45.5,22.9c-1.7,0.3-3.4,0.7-5.1,1.1H2272v-303.1C2241.7,1568.9,2212.1,1588.4,2196.1,1614.9z"/>
<g>
	<path class="st77" d="M2154.1,1404c-43.8,7.9-87.5,20-125.5,43c-38.1,23-87.2,43.8-99.9,86.4c-36.3-39-95.6-54.9-146.6-39
		c-11.5,3.6-36.1-5.9-31.9,5.4c-50-54-105.6-111.2-178.3-122.6c-86.2-13.5-168.8,42.6-224.8,109.4c-27.9,33.3-49.4,46.7-68.9,85.5
		c-3.4-23.6-19.1-45-40.6-55.3s-50.7-25.8-71.2-13.7c1.4-77.4-55.3-142.4-109.9-197.3c-20.8-20.9-42-41.7-66.9-57.5
		c-81.2-51.2-208.5-47.1-273.1,23.9c-26.7-22.5-72.7-48.1-95.4-21.5c-7.7-23.2-28.7-41.5-52.7-45.9c-21.3-3.9-45.7-0.6-61.8,13.4
		c-1.2,2.5-3.1,4.6-5.8,5.9c1.8-2.2,3.7-4.1,5.8-5.9c3.3-7,1.4-17.3-1.5-25.2c-54.2-144.8-191.1-255.2-344-277.5
		c-25.7-3.8-51.9-5.2-77.8-2.8c-28.8,2.7-57,10.3-83.3,22.1V1872h2272v-475.2C2232.9,1393.2,2192.9,1397,2154.1,1404z"/>
	<path class="st78" d="M738.2,1287.1c-2.4,28,11.4,56.8,34.8,72.4c33.5,22.2,77.4,15.9,117.2,21.3c44.2,5.9,89.7,32,101.5,75.1
		c4.7,17,3.8,35.5,10.8,51.7c8.8,20.4,30.3,34.6,52.5,34.6s43.8-14.2,52.5-34.7c11.6-27.1,0.8-58.4-12.4-84.7
		c-13.2-26.4-29.3-53.2-28.5-82.7c0.2-6.9,1.4-13.6,3.5-20.1c-4.6-4.7-9.2-9.4-13.7-14c-20.8-20.9-42-41.7-66.9-57.5
		c-64.9-41-159.2-46.5-227.5-10.8C748.7,1250.7,739.9,1268.5,738.2,1287.1z"/>
	<path class="st78" d="M1462.2,1419.2c21.2,23.9,23.3,58.6,33.3,88.9c12.2,37,37.9,69.5,71.1,89.9c36.7,22.6,88.1,28.7,121,0.8
		c23.9-20.3,32.4-52.8,46.2-80.9c3.8-7.6,8-15,12.8-22.1c-49-52.8-103.7-107.5-174.6-118.6c-44.9-7.1-88.9,4.9-128.7,27.4
		C1450.4,1408.3,1456.8,1413.2,1462.2,1419.2z"/>
	<path class="st78" d="M2047.4,1636.2c3.6,13.1,8.8,26.8,5.2,40c-7.1,26.5-41.7,32-69.2,32.5c-59.8,1-122.5,3.8-174.1,34.2
		c-44.6,26.3-76.9,80.1-68.3,129.2h531v-462.9c-65.7,3.3-146.6,24.4-178.1,55.3C2049.5,1507.9,2031,1576.2,2047.4,1636.2z"/>
	<path class="st76" d="M2163.8,1697.9c-3.9,23.2-2.6,47.7-12.3,69.1c-14.5,31.9-50.6,48.8-85.3,53.1c-34.7,4.3-69.9-1.2-104.9-1
		s-72.4,7.6-97,32.6c-5.7,5.8-10.3,12.8-13.7,20.3H2272v-294.8C2217.4,1593,2173.3,1641.7,2163.8,1697.9z"/>
	<path class="st78" d="M1029.7,1812.1c-2.6,2.4-5.7,3.6-9.3,2.7C1023.5,1813.7,1026.6,1812.8,1029.7,1812.1
		c3.9-3.6,6.6-9.9,7.8-15.3c6.7-29.7,9.3-60.7,3-90.5s-13.4-54.6-38.7-71.4c-28-18.6-65.2-17.2-97.1-6.7
		c-31.9,10.5-60.5,28.9-90.9,43.2s-64.5,24.8-97.3,17.7c-32.8-7.1-64.1-51.4-61.6-84.9c33.1-17,56.6-51.4,60.5-88.4
		c3.9-37-12-75.5-40.9-99c-53.1-43.3-131.8-29.8-195.9-5.5c-31.6,12-64.5,26.3-97.8,21c-61.4-9.6-94.2-81.5-91.3-143.6
		c2.9-62.1,29.6-120.7,38.2-182.3c8.6-61.6-8.4-135.3-64.9-161.4c-23.9-11-52-12.1-74.8-24.6c-8.9-1.9-17.8-3.5-26.8-4.9
		c-25.7-3.8-51.9-5.2-77.8-2.8c-28.8,2.7-57,10.3-83.3,22.1V1872h1143.2c-3.6-5.8-7.6-11.3-12-16.5
		C1107.4,1828,1065.1,1804.9,1029.7,1812.1z"/>
	<path class="st76" d="M502.1,1753.9c-40-42.1-104.9-48.1-162.6-42.5c-16,1.6-33.2,3.6-47.3-4.2c-8.1-4.5-14.2-11.8-19.1-19.7
		c-23.6-37.9-19.7-86.6-35.3-128.5c-14.1-38-43.4-68.4-74.3-94.7c-42.6-36.2-92.3-67.8-147.9-73.1c-5.2-0.5-10.4-0.7-15.6-0.6V1872
		h540C540.6,1827.7,532,1785.3,502.1,1753.9z"/>
</g>
<g>
	<path class="st79" d="M0,1255.1c0,0,1474.5-833,2272-41c0,0,0-1138.9,0-1138.9S621.3-16.2,0,1043.1L0,1255.1z"/>
	<path class="st79" d="M0,1321.7c0,0,1474.5-833,2272-41c0,0,0-1138.9,0-1138.9S621.3,50.4,0,1109.7L0,1321.7z"/>
	<path class="st79" d="M0,1394.6c0,0,1474.5-833,2272-41c0,0,0-1138.9,0-1138.9S621.3,123.2,0,1182.6L0,1394.6z"/>
	<g>
		<path class="st80" d="M0,1297.1v69.6c0,0,814.2-971.9,2272-452.2V693.4C830.8,458.6,183.9,1072.4,0,1297.1z"/>
		<path class="st81" d="M0,1255.1v42c183.9-224.7,830.8-838.5,2272-603.7V586.1C830.8,354.2,183.9,1014.2,0,1255.1z"/>
		<path class="st82" d="M2272,306.1v-56.8c0,0-1515.7-371.3-2272,896.2v10.6C183.9,870.1,830.8,82.3,2272,306.1z"/>
		<path class="st83" d="M2272,347.1v-41C830.8,82.3,183.9,870.1,0,1156v19.5C183.9,894.9,830.8,122.3,2272,347.1z"/>
		<path class="st84" d="M0,1230.8v24.3c183.9-241,830.8-900.9,2272-669V470.8C830.8,242.9,183.9,967.2,0,1230.8z"/>
		<path class="st85" d="M0,1175.5v21.2C183.9,922.2,830.8,166.7,2272,392.6v-45.5C830.8,122.3,183.9,894.9,0,1175.5z"/>
		<path class="st86" d="M0,1196.7v34c183.9-263.6,830.8-987.9,2272-760v-78.2C830.8,166.7,183.9,922.2,0,1196.7z"/>
	</g>
	<g>
		<g>
			<path class="st77" d="M496.9,1035.7c-0.4-0.8-0.8-1.6-1.2-2.4c-1.6-2.7-3.7-4.8-6.4-6.4c-2.8-1.6-5.8-2.4-9-2.4
				c-3.2,0-6.2,0.8-9,2.4c-2.7,1.6-4.8,3.7-6.4,6.4c-0.4,0.8-0.8,1.6-1.2,2.4c-1.7,3-2.6,6.2-2.6,9.7c0,3.5,0.9,6.7,2.6,9.7
				c3.4,5.9,9.8,9.5,16.6,9.5s13.2-3.7,16.6-9.5c1.7-3,2.6-6.2,2.6-9.7C499.5,1041.9,498.6,1038.7,496.9,1035.7L496.9,1035.7z"/>
		</g>
		<g>
			<path class="st77" d="M558.7,994.4c7.1,0,7.1-11,0-11C551.6,983.5,551.6,994.4,558.7,994.4L558.7,994.4z"/>
		</g>
		<g>
			<path class="st77" d="M654.6,950c-0.4-0.9-0.7-1.9-1.1-2.8c-0.3-0.9-0.7-1.5-1.5-2.1c-0.7-0.5-1.6-0.9-2.5-0.9
				c-0.7,0-1.4,0.2-2.1,0.6c-1,0.5-1.5,1.5-1.9,2.4c-0.4,0.9-0.7,1.9-1.1,2.8c-0.6,1.6,0.1,3.9,1.3,5.1c1,0.9,2.3,1.5,3.7,1.5
				c1.3,0,2.7-0.6,3.7-1.5C654.5,953.8,655.3,951.6,654.6,950L654.6,950z"/>
		</g>
		<g>
			<path class="st77" d="M685.6,829.3c-1,0.2-2,0.4-3,0.5c-0.4,0.2-0.9,0.4-1.3,0.6c-0.7,0.4-1.2,0.8-1.6,1.4
				c-0.7,0.9-1.3,2.2-1.2,3.4c0,1,0.3,2,0.8,2.8c0.6,1.1,2.1,2.4,3.4,2.6c1,0.2,2,0.4,3,0.5c1.1,0.3,2.2,0.3,3.3,0
				c1-0.3,2-0.8,2.7-1.6c1.1-1.2,1.8-2.7,1.8-4.4c0-1.6-0.7-3.3-1.8-4.4c-0.8-0.8-1.7-1.3-2.7-1.6C687.8,829,686.7,829,685.6,829.3
				L685.6,829.3z"/>
		</g>
		<g>
			<path class="st77" d="M773.8,666c0-1.4,0-2.9-0.2-4.2c-0.2-1.1-0.7-2.1-1-3.1c-1.3-3.7-6.3-3.7-7.6,0c-0.4,1-0.8,2-1,3.1
				c-0.3,1.4-0.2,2.8-0.2,4.2c-0.1,2.6,2.4,5.2,5.1,5.1C771.5,670.9,773.9,668.8,773.8,666L773.8,666z"/>
		</g>
		<g>
			<path class="st77" d="M204.3,812.8c7.3,0,7.3-11.4,0-11.4C197,801.4,197,812.8,204.3,812.8L204.3,812.8z"/>
		</g>
		<g>
			<path class="st77" d="M461.5,558.9c7.5,0,7.5-11.7,0-11.7C454,547.3,453.9,558.9,461.5,558.9L461.5,558.9z"/>
		</g>
		<g>
			<path class="st77" d="M213.7,767.5c5.5,0,5.5-8.6,0-8.6C208.2,758.9,208.2,767.5,213.7,767.5L213.7,767.5z"/>
		</g>
		<g>
			<path class="st77" d="M282.7,725.1c3.4,0,3.4-5.3,0-5.3C279.3,719.8,279.3,725.1,282.7,725.1L282.7,725.1z"/>
		</g>
		<g>
			<path class="st77" d="M430.1,626.1c5.2,0,5.2-8,0-8C424.9,618.1,424.9,626.1,430.1,626.1L430.1,626.1z"/>
		</g>
		<g>
			<path class="st77" d="M679.7,435.5c-3.1,1.2-6.2,2.4-9.3,3.6c-2.2,0.9-3.7,2.9-3,5.4c0.6,2.3,3.1,3.7,5.4,3
				c3.2-0.9,6.4-1.8,9.5-2.7c2.5-0.7,4.1-3.4,3.4-6C685,436.6,682.1,434.6,679.7,435.5L679.7,435.5z"/>
		</g>
		<g>
			<path class="st77" d="M38.1,834.2c6.7,0,6.7-10.4,0-10.4C31.4,823.8,31.4,834.2,38.1,834.2L38.1,834.2z"/>
		</g>
		<g>
			<path class="st77" d="M809.5,907c3.5,0,3.5-5.5,0-5.5C806,901.6,806,907,809.5,907L809.5,907z"/>
		</g>
		<g>
			<path class="st77" d="M953.8,856.8c11.5,0,11.5-17.9,0-17.9C942.3,838.9,942.3,856.8,953.8,856.8L953.8,856.8z"/>
		</g>
		<g>
			<path class="st77" d="M1010.2,828.1c6.9,0,6.9-10.7,0-10.7C1003.3,817.4,1003.3,828.1,1010.2,828.1L1010.2,828.1z"/>
		</g>
		<g>
			<path class="st77" d="M1154.5,789.8c6.1,0,6.1-9.4,0-9.4C1148.4,780.4,1148.4,789.8,1154.5,789.8L1154.5,789.8z"/>
		</g>
		<g>
			<path class="st77" d="M1254.8,754.3c4.7,0,4.7-7.3,0-7.3C1250.1,747,1250.1,754.3,1254.8,754.3L1254.8,754.3z"/>
		</g>
		<g>
			<path class="st77" d="M963.2,877.8c6.2,0,6.3-9.7,0-9.7C956.9,868.1,956.9,877.8,963.2,877.8L963.2,877.8z"/>
		</g>
		<g>
			<path class="st77" d="M1066.7,738.7c-1,0.1-2.1,0.2-3.1,0.3c-1.5,0.1-2.8,0.5-3.8,1.6c-0.9,0.9-1.6,2.5-1.6,3.8
				c0.1,1.4,0.5,2.9,1.6,3.8c1.1,1,2.3,1.5,3.8,1.6c1,0.1,2.1,0.2,3.1,0.3c1.4,0.1,3.1-0.7,4-1.7c1-1,1.7-2.6,1.7-4
				c-0.1-1.5-0.5-3-1.7-4C1069.6,739.4,1068.2,738.5,1066.7,738.7L1066.7,738.7z"/>
		</g>
		<g>
			<path class="st77" d="M1364.6,687.1c7.1,0,7.1-11,0-11C1357.5,676.2,1357.5,687.1,1364.6,687.1L1364.6,687.1z"/>
		</g>
		<g>
			<path class="st77" d="M1493.1,674.6c3,0,3-4.6,0-4.6C1490.1,669.9,1490.1,674.6,1493.1,674.6L1493.1,674.6z"/>
		</g>
		<g>
			<path class="st77" d="M1568.4,680.2c6.2,0,6.2-9.6,0-9.6C1562.2,670.6,1562.2,680.2,1568.4,680.2L1568.4,680.2z"/>
		</g>
		<g>
			<path class="st77" d="M1016.5,634.7c8.1,0,8.2-12.7,0-12.7C1008.4,622,1008.3,634.7,1016.5,634.7L1016.5,634.7z"/>
		</g>
		<g>
			<path class="st77" d="M1113.7,471.7c-1,0.1-2.1,0.2-3.1,0.4c-1.3,0.2-2.7,1.1-2.6,2.6c0.1,1.5,1.1,2.4,2.6,2.6
				c1,0.1,2.1,0.2,3.1,0.4c1.5,0.2,3-1.5,3-3C1116.6,473.2,1115.3,471.6,1113.7,471.7L1113.7,471.7z"/>
		</g>
		<g>
			<path class="st77" d="M1198.4,393.2c-0.1-1-0.1-2.1-0.2-3.1c-0.1-1.5-1.3-3-3-3c-1.7,0.1-2.8,1.3-3,3c-0.1,1-0.1,2.1-0.2,3.1
				c-0.1,1.7,1.5,3.2,3.2,3.2C1196.9,396.3,1198.5,394.9,1198.4,393.2L1198.4,393.2z"/>
		</g>
		<g>
			<path class="st77" d="M991.4,340.7c5.1,0,5.1-7.9,0-7.9C986.3,332.8,986.3,340.7,991.4,340.7L991.4,340.7z"/>
		</g>
		<g>
			<path class="st77" d="M1320.7,179.3c3.2,0,3.2-4.9,0-4.9C1317.5,174.3,1317.5,179.3,1320.7,179.3L1320.7,179.3z"/>
		</g>
		<g>
			<path class="st77" d="M1750.3,426.1c10,0,10.1-15.6,0-15.6C1740.2,410.4,1740.2,426.1,1750.3,426.1L1750.3,426.1z"/>
		</g>
		<g>
			<path class="st77" d="M1295.6,811.8c6.1,0,6.1-9.4,0-9.4C1289.5,802.4,1289.5,811.8,1295.6,811.8L1295.6,811.8z"/>
		</g>
		<g>
			<path class="st77" d="M1414.7,819.6c8.1,0,8.1-12.5,0-12.5C1406.7,807.1,1406.7,819.6,1414.7,819.6L1414.7,819.6z"/>
		</g>
		<g>
			<path class="st77" d="M1430.4,903.9c7.5,0,7.5-11.7,0-11.7C1422.9,892.2,1422.9,903.9,1430.4,903.9L1430.4,903.9z"/>
		</g>
		<g>
			<path class="st77" d="M1220.3,966.4c7.3,0,7.3-11.4,0-11.4C1213,955,1213,966.4,1220.3,966.4L1220.3,966.4z"/>
		</g>
		<g>
			<path class="st77" d="M1643.7,912.8c6.9,0,6.9-10.7,0-10.7C1636.8,902.1,1636.8,912.8,1643.7,912.8L1643.7,912.8z"/>
		</g>
		<g>
			<path class="st77" d="M1632,821.6c0.3-2.3,0.9-4.6,0.2-6.9c-0.4-1.5-1.3-3.1-2.2-4.4c-1.3-1.8-2.9-3-5.2-3s-3.9,1.2-5.2,3
				c-0.9,1.2-1.7,2.9-2.2,4.4c-0.7,2.3-0.1,4.6,0.2,6.9c0.2,1.5,1.5,3,2.6,3.8c1.2,1,2.9,1.7,4.5,1.6c1.3-0.1,2.6-0.4,3.7-1
				C1630,825.3,1631.7,823.2,1632,821.6L1632,821.6z"/>
		</g>
		<g>
			<path class="st77" d="M1772.2,823.5c5,0,5-7.7,0-7.7C1767.2,815.8,1767.2,823.5,1772.2,823.5L1772.2,823.5z"/>
		</g>
		<g>
			<path class="st77" d="M1809.8,834.1c6.5,0,6.5-10.1,0-10.1C1803.3,824,1803.3,834.1,1809.8,834.1L1809.8,834.1z"/>
		</g>
		<g>
			<path class="st77" d="M1907.1,846.4c1,0,2.1-0.1,3.1-0.1c1.2-0.1,2.4-0.5,3.3-1.4c0.8-0.8,1.4-2.2,1.4-3.3
				c-0.1-2.6-2.1-4.6-4.7-4.7c-1,0-2.1-0.1-3.1-0.1c-2.5-0.1-5,2.3-4.9,4.9C1902.3,844.1,1904.3,846.6,1907.1,846.4L1907.1,846.4z"
				/>
		</g>
		<g>
			<path class="st77" d="M1762.8,688.7c9,0,9.1-14.1,0-14.1C1753.8,674.6,1753.7,688.7,1762.8,688.7L1762.8,688.7z"/>
		</g>
		<g>
			<path class="st77" d="M1925.9,474.3c7.5,0,7.5-11.7,0-11.7C1918.4,462.6,1918.3,474.3,1925.9,474.3L1925.9,474.3z"/>
		</g>
		<g>
			<path class="st77" d="M1952.7,349.4c-0.6-0.4-1.1-0.8-1.5-1.3c-0.4-0.6-0.7-1.2-0.8-1.9c-0.4-3.4-5-3.5-5.3,0
				c-0.3,3.3,1,6.4,3.3,8.8c1.5,1.5,4,1.3,5.2-0.4C1955,352.9,1954.5,350.5,1952.7,349.4L1952.7,349.4z"/>
		</g>
		<g>
			<path class="st77" d="M1850.6,227.2c8.4,0,8.4-13.1,0-13.1C1842.2,214.2,1842.2,227.2,1850.6,227.2L1850.6,227.2z"/>
		</g>
		<g>
			<path class="st77" d="M1493.1,322.6c6.1,0,6.1-9.4,0-9.4C1487.1,313.2,1487.1,322.6,1493.1,322.6L1493.1,322.6z"/>
		</g>
		<g>
			<path class="st77" d="M1433.6,253.2c5.5,0,5.5-8.6,0-8.6C1428,244.6,1428,253.2,1433.6,253.2L1433.6,253.2z"/>
		</g>
		<g>
			<path class="st77" d="M1370.8,113.6c11.5,0,11.5-17.9,0-17.9C1359.3,95.7,1359.3,113.6,1370.8,113.6L1370.8,113.6z"/>
		</g>
		<g>
			<path class="st77" d="M1092.7,211c-0.7-0.1-1.4-0.3-2.1-0.3c-0.5,0-0.9,0.1-1.4,0.1c0.9,0.5,1.8,1,2.7,1.5
				c-0.4-0.7-0.8-1.4-1.3-2.2c-0.5-0.9-1.7-1.4-2.6-1.1c-1,0.3-1.6,1.2-1.7,2.2c-0.1,0.8-0.1,1.7-0.2,2.5c-0.1,1.1,0.6,2.1,1.5,2.7
				c1,0.6,2,1.1,3.1,1.4c1.8,0.5,4-0.7,4.4-2.5C1095.6,213.6,1094.7,211.3,1092.7,211L1092.7,211z"/>
		</g>
		<g>
			<path class="st77" d="M1919.6,602.1c10.6,0,10.6-16.5,0-16.5C1909,585.6,1909,602.1,1919.6,602.1L1919.6,602.1z"/>
		</g>
		<g>
			<path class="st77" d="M2073.3,745.5c9.5,0,9.5-14.8,0-14.8C2063.8,730.7,2063.7,745.5,2073.3,745.5L2073.3,745.5z"/>
		</g>
		<g>
			<path class="st77" d="M2220.6,673.7c10,0,10-15.5,0-15.5C2210.7,658.2,2210.7,673.7,2220.6,673.7L2220.6,673.7z"/>
		</g>
		<g>
			<path class="st77" d="M1367.7,602.8c11.5,0,11.5-17.9,0-17.9C1356.2,584.9,1356.2,602.8,1367.7,602.8L1367.7,602.8z"/>
		</g>
		<g>
			<path class="st77" d="M1374,520.2c10.1,0,10.2-15.8,0-15.8C1363.8,504.5,1363.8,520.2,1374,520.2L1374,520.2z"/>
		</g>
		<g>
			<path class="st77" d="M768.8,747c11.5,0,11.5-17.9,0-17.9C757.3,729.2,757.3,747,768.8,747L768.8,747z"/>
		</g>
		<g>
			<path class="st77" d="M361.1,926.1c7.9,0,7.9-12.2,0-12.2C353.2,913.9,353.2,926.1,361.1,926.1L361.1,926.1z"/>
		</g>
		<g>
			<path class="st77" d="M370.5,837.1c6.3,0,6.3-9.8,0-9.8C364.2,827.3,364.2,837.1,370.5,837.1L370.5,837.1z"/>
		</g>
		<g>
			<path class="st77" d="M425.9,804c0,1,0.1,2.1,0.1,3.1c0.1,2.1,1.8,4.2,4.1,4.1c2.3-0.1,4-1.8,4.1-4.1c0-1,0.1-2.1,0.1-3.1
				c0.1-2.2-2-4.3-4.2-4.2C427.9,799.8,425.8,801.6,425.9,804L425.9,804z"/>
		</g>
		<g>
			<path class="st77" d="M502.2,865.3c6.3,0,6.3-9.8,0-9.8C495.9,855.5,495.9,865.3,502.2,865.3L502.2,865.3z"/>
		</g>
		<g>
			<path class="st77" d="M542.1,787.6c-0.7,0.5-1.4,1-2,1.5c-0.8,0.6-1.5,1.3-1.9,2.2c-0.5,1-1,2-0.9,3.2c0.1,1.7,0.9,3.6,2.1,4.8
				c0.8,0.8,1.8,1.4,2.7,2.1c1.3,0.7,2.6,1.1,4,1.1c1.4,0,2.8-0.4,4-1.1c2.4-1.4,4-4.1,4-6.9c0-2.8-1.5-5.5-4-6.9
				c-1.3-0.7-2.6-1.1-4-1.1C544.7,786.5,543.3,786.9,542.1,787.6L542.1,787.6z"/>
		</g>
		<g>
			<path class="st77" d="M543,753.2c3.3,0,3.3-5.1,0-5.1C539.7,748.1,539.7,753.2,543,753.2L543,753.2z"/>
		</g>
		<g>
			<path class="st77" d="M612,780.7c6.4,0,6.4-10,0-10C605.6,770.7,605.5,780.7,612,780.7L612,780.7z"/>
		</g>
		<g>
			<path class="st77" d="M599.4,717.9c6.2,0,6.3-9.7,0-9.7C593.2,708.2,593.2,717.9,599.4,717.9L599.4,717.9z"/>
		</g>
		<g>
			<path class="st77" d="M2047.1,277.2c-1.6-2.5-2.6-5-3.5-7.7c-0.7-2.1-2.6-3.7-4.9-3.7c-2,0-4.6,1.6-4.9,3.7c-0.4,2.5-0.7,5,0,7.5
				c0.6,2.2,1.6,4.3,2.8,6.3c1.6,2.7,5.5,4,8.3,2.2C2047.6,283.8,2049,280,2047.1,277.2L2047.1,277.2z"/>
		</g>
		<g>
			<path class="st77" d="M2128.1,190.9c1-1.1,2-2.2,3-3.2c1.2-1.2,1.9-2.9,1.9-4.6c0-1.6-0.7-3.5-1.9-4.6c-1.2-1.1-2.9-2-4.6-1.9
				c-1.7,0.1-3.3,0.7-4.6,1.9c-1.1,1-2.2,2-3.2,3c-1.2,1.1-1.9,3-1.9,4.7c0,1.6,0.7,3.6,1.9,4.7c1.3,1.2,2.9,2,4.7,1.9
				C2125.1,192.7,2126.9,192.2,2128.1,190.9L2128.1,190.9z"/>
		</g>
		<g>
			<path class="st77" d="M2205.7,131.9c-0.3-0.6-0.7-1.2-1-1.8c-1.2-2.1-3.6-3.5-6-3.5s-4.8,1.3-6,3.5c-0.3,0.6-0.7,1.2-1,1.8
				c-1.4,2.5-1.5,5.7,0,8.2c1.5,2.5,4.2,4,7,4s5.6-1.6,7-4C2207.2,137.6,2207.2,134.5,2205.7,131.9L2205.7,131.9z"/>
		</g>
		<g>
			<path class="st77" d="M1604.1,145.2C1604.1,145.2,1604.1,145.2,1604.1,145.2c-0.4-1.1-0.9-2.1-1.3-3.1c-0.8-1.5-1.9-2.7-3.3-3.6
				c-0.8-0.8-1.7-1.3-2.8-1.6c-1.5-0.8-3.2-1.2-4.9-1.1c-0.3,0-0.5,0-0.8-0.1c-1.8-0.1-3.4,0.3-5,1.1c-1.6,0.5-3,1.4-4.1,2.7
				c-1.3,1.2-2.1,2.5-2.7,4.1c-0.8,1.5-1.2,3.2-1.1,5c0.2,1.1,0.3,2.3,0.5,3.4c0.6,2.2,1.7,4.1,3.3,5.7c0.9,0.7,1.7,1.3,2.6,2
				c2,1.2,4.2,1.7,6.5,1.8c0.3,0,0.5,0,0.8-0.1c1.1-0.2,2.3-0.3,3.4-0.5c1.7-0.4,3.1-1.2,4.4-2.3c1-0.6,1.7-1.3,2.3-2.3
				c1.1-1.2,1.9-2.7,2.3-4.4c0.2-0.6,0.2-1.1,0.2-1.7C1604.7,148.6,1604.6,146.9,1604.1,145.2L1604.1,145.2z"/>
		</g>
		<g>
			<path class="st77" d="M2092.1,291.6c10.6,0,10.6-16.5,0-16.5C2081.5,275.2,2081.5,291.6,2092.1,291.6L2092.1,291.6z"/>
		</g>
		<g>
			<path class="st77" d="M972.6,231.9c2.3,0,2.3-3.5,0-3.5C970.3,228.3,970.3,231.9,972.6,231.9L972.6,231.9z"/>
		</g>
		<g>
			<path class="st77" d="M787.6,352.4c8.1,0,8.1-12.5,0-12.5C779.5,339.9,779.5,352.4,787.6,352.4L787.6,352.4z"/>
		</g>
		<g>
			<path class="st77" d="M790.7,1020.7c8.6,0,8.6-13.4,0-13.4C782.1,1007.4,782.1,1020.7,790.7,1020.7L790.7,1020.7z"/>
		</g>
		<g>
			<path class="st77" d="M800.1,1162.9c10,0,10-15.5,0-15.5C790.2,1147.4,790.2,1162.9,800.1,1162.9L800.1,1162.9z"/>
		</g>
		<g>
			<path class="st77" d="M671.6,1200.5c5.9,0,5.9-9.1,0-9.1C665.7,1191.4,665.7,1200.5,671.6,1200.5L671.6,1200.5z"/>
		</g>
		<g>
			<path class="st77" d="M1033.2,1244.6c-1,0.3-1.9,0.7-2.9,1c-1.5,0.5-2.7,1.3-3.7,2.5c-0.9,1.2-1.6,2.7-1.5,4.3
				c0.1,1.2,0.4,2.4,1,3.5c0.9,1.6,2.5,2.6,4.2,3.2c1,0.3,1.9,0.7,2.9,1c2.6,0.9,6-0.1,7.9-2.1c1.5-1.6,2.4-3.5,2.4-5.7
				c0-2.1-0.9-4.3-2.4-5.7C1039.1,1244.7,1035.8,1243.6,1033.2,1244.6L1033.2,1244.6z"/>
		</g>
	</g>
</g>
</svg>
